<svg xmlns="http://www.w3.org/2000/svg" width="192" height="192" viewBox="0 0 192 192">
  <rect width="192" height="192" rx="40" fill="#1A3C8C"/>
  <!-- Globe circle -->
  <circle cx="96" cy="88" r="56" fill="#2B5AC7"/>
  <!-- Simplified continents (Americas + Europe/Africa) -->
  <path d="M68 58 Q72 52 78 56 L80 70 Q82 76 76 80 L68 82 Q62 78 64 70 Z" fill="white" opacity="0.9"/>
  <path d="M72 82 Q68 90 70 98 L76 108 Q80 112 78 104 L76 96 Q78 88 76 84 Z" fill="white" opacity="0.9"/>
  <path d="M108 56 Q114 54 118 60 L120 68 Q118 74 114 72 L108 70 Q104 64 106 58 Z" fill="white" opacity="0.9"/>
  <path d="M110 74 Q116 76 116 84 L112 92 Q108 96 106 88 L108 80 Z" fill="white" opacity="0.9"/>
  <!-- Gold banner arc -->
  <path d="M40 128 Q96 158 152 128" stroke="#E8A020" stroke-width="16" fill="none" stroke-linecap="round"/>
  <!-- GM text on banner -->
  <text x="96" y="135" font-family="Georgia,serif" font-size="11" font-weight="bold" fill="white" text-anchor="middle">GM</text>
</svg>
